<?xml version="1.0" encoding="iso-8859-1"?>
<!DOCTYPE svg PUBLIC "-//W3C//DTD SVG 1.1//EN" "http://www.w3.org/Graphics/SVG/1.1/DTD/svg11.dtd">
<svg 
 version="1.1" xmlns="http://www.w3.org/2000/svg" xmlns:xlink="http://www.w3.org/1999/xlink" x="0px" y="0px" width="512px"
	 height="512px" viewBox="0 0 512 512" enable-background="new 0 0 512 512" xml:space="preserve"
><g id="b75708d097f2188dff6617b0f00dc6f5"><g></g><g fill="#b2cae4"><path display="inline" d="M256,0.5C114.893,0.5,0.5,114.891,0.5,256c0,141.107,114.393,255.5,255.5,255.5S511.5,397.107,511.5,256
		C511.5,114.891,397.107,0.5,256,0.5z M383.75,353.941c0,16.394-10.925,22.028-24.281,12.518L256,292.773v61.168
		c0,16.394-10.924,22.028-24.282,12.518l-130.827-93.168c-13.357-9.511-13.357-25.072,0-34.582l130.827-93.168
		c13.357-9.51,24.282-3.878,24.282,12.517v61.168l103.469-73.685c13.356-9.51,24.281-3.878,24.281,12.517V353.941z"></path></g></g></svg>